# xmcd CD database file
#
# Track frame offsets:
#	150
#	26803
#	50431
#	85802
#	116966
#	143127
#	182326
#	214357
#	241878
#	265300
#	303651
#	328008
#
# Disc length: 4622 seconds
#
# Revision: 0
# Processed by: cddbd v1.5.2PL0 Copyright (c) Steve Scherf et al.
# Submitted via: CDex 1.70beta2
#
DISCID=b0120c0c
DTITLE=Schiller - Future (Limited Ultra Deluxe Edition) Disc 3
DYEAR=2016
DGENRE=New Age
TTITLE0=Exposition
TTITLE1=Desert Empire
TTITLE2=Oasis
TTITLE3=Denn Wer Liebt
TTITLE4=Ruhe
TTITLE5=Ultramarin
TTITLE6=Sonnenuhr
TTITLE7=Berlin - Moskau
TTITLE8=Atemlos
TTITLE9=Mitternacht
TTITLE10=Swan Lake
TTITLE11=Das Glockenspiel
EXTD=YEAR: 2016
EXTT0=
EXTT1=
EXTT2=
EXTT3=
EXTT4=
EXTT5=
EXTT6=
EXTT7=
EXTT8=
EXTT9=
EXTT10=
EXTT11=
PLAYORDER=
